<svg width="30" height="30" viewBox="0 0 30 30" fill="none" xmlns="http://www.w3.org/2000/svg">
<g id="MetaMask logo">
<path id="Vector" d="M25.8098 3.34277L16.4407 10.3013L18.1733 6.19588L25.8098 3.34277Z" fill="#E2761B" stroke="#E2761B" stroke-linecap="round" stroke-linejoin="round"/>
<g id="Group">
<path id="Vector_2" d="M4.18079 3.34277L13.4746 10.3673L11.8267 6.19588L4.18079 3.34277Z" fill="#E4761B" stroke="#E4761B" stroke-linecap="round" stroke-linejoin="round"/>
<path id="Vector_3" d="M22.4388 19.4727L19.9435 23.2956L25.2825 24.7646L26.8173 19.5574L22.4388 19.4727Z" fill="#E4761B" stroke="#E4761B" stroke-linecap="round" stroke-linejoin="round"/>
<path id="Vector_4" d="M3.19208 19.5574L4.7175 24.7646L10.0565 23.2956L7.56119 19.4727L3.19208 19.5574Z" fill="#E4761B" stroke="#E4761B" stroke-linecap="round" stroke-linejoin="round"/>
<path id="Vector_5" d="M9.75515 13.0132L8.2674 15.2636L13.5687 15.499L13.3804 9.80225L9.75515 13.0132Z" fill="#E4761B" stroke="#E4761B" stroke-linecap="round" stroke-linejoin="round"/>
<path id="Vector_6" d="M20.2354 13.0132L16.5631 9.73633L16.4407 15.499L21.7326 15.2636L20.2354 13.0132Z" fill="#E4761B" stroke="#E4761B" stroke-linecap="round" stroke-linejoin="round"/>
<path id="Vector_7" d="M10.0565 23.2957L13.2392 21.742L10.4896 19.5951L10.0565 23.2957Z" fill="#E4761B" stroke="#E4761B" stroke-linecap="round" stroke-linejoin="round"/>
<path id="Vector_8" d="M16.7514 21.742L19.9435 23.2957L19.5009 19.5951L16.7514 21.742Z" fill="#E4761B" stroke="#E4761B" stroke-linecap="round" stroke-linejoin="round"/>
</g>
<g id="Group_2">
<path id="Vector_9" d="M19.9435 23.2956L16.7514 21.7419L17.0056 23.8229L16.9774 24.6986L19.9435 23.2956Z" fill="#D7C1B3" stroke="#D7C1B3" stroke-linecap="round" stroke-linejoin="round"/>
<path id="Vector_10" d="M10.0565 23.2956L13.0226 24.6986L13.0038 23.8229L13.2392 21.7419L10.0565 23.2956Z" fill="#D7C1B3" stroke="#D7C1B3" stroke-linecap="round" stroke-linejoin="round"/>
</g>
<path id="Vector_11" d="M13.0697 18.2203L10.4143 17.4388L12.2881 16.5819L13.0697 18.2203Z" fill="#233447" stroke="#233447" stroke-linecap="round" stroke-linejoin="round"/>
<path id="Vector_12" d="M16.9209 18.2203L17.7024 16.5819L19.5857 17.4388L16.9209 18.2203Z" fill="#233447" stroke="#233447" stroke-linecap="round" stroke-linejoin="round"/>
<g id="Group_3">
<path id="Vector_13" d="M10.0565 23.2956L10.5085 19.4727L7.56122 19.5574L10.0565 23.2956Z" fill="#CD6116" stroke="#CD6116" stroke-linecap="round" stroke-linejoin="round"/>
<path id="Vector_14" d="M19.4915 19.4727L19.9435 23.2956L22.4388 19.5574L19.4915 19.4727Z" fill="#CD6116" stroke="#CD6116" stroke-linecap="round" stroke-linejoin="round"/>
<path id="Vector_15" d="M21.7326 15.2637L16.4407 15.4991L16.9303 18.2204L17.7119 16.5819L19.5951 17.4388L21.7326 15.2637Z" fill="#CD6116" stroke="#CD6116" stroke-linecap="round" stroke-linejoin="round"/>
<path id="Vector_16" d="M10.4143 17.4388L12.2976 16.5819L13.0697 18.2204L13.5687 15.4991L8.26743 15.2637L10.4143 17.4388Z" fill="#CD6116" stroke="#CD6116" stroke-linecap="round" stroke-linejoin="round"/>
</g>
<g id="Group_4">
<path id="Vector_17" d="M8.26743 15.2637L10.4896 19.5951L10.4143 17.4388L8.26743 15.2637Z" fill="#E4751F" stroke="#E4751F" stroke-linecap="round" stroke-linejoin="round"/>
<path id="Vector_18" d="M19.5951 17.4388L19.5009 19.5951L21.7326 15.2637L19.5951 17.4388Z" fill="#E4751F" stroke="#E4751F" stroke-linecap="round" stroke-linejoin="round"/>
<path id="Vector_19" d="M13.5687 15.499L13.0697 18.2203L13.6911 21.4312L13.8324 17.2034L13.5687 15.499Z" fill="#E4751F" stroke="#E4751F" stroke-linecap="round" stroke-linejoin="round"/>
<path id="Vector_20" d="M16.4407 15.499L16.1864 17.1939L16.2994 21.4312L16.9303 18.2203L16.4407 15.499Z" fill="#E4751F" stroke="#E4751F" stroke-linecap="round" stroke-linejoin="round"/>
</g>
<path id="Vector_21" d="M16.9303 18.2204L16.2994 21.4313L16.7514 21.7421L19.5009 19.5952L19.5951 17.4388L16.9303 18.2204Z" fill="#F6851B" stroke="#F6851B" stroke-linecap="round" stroke-linejoin="round"/>
<path id="Vector_22" d="M10.4143 17.4388L10.4896 19.5952L13.2392 21.7421L13.6911 21.4313L13.0697 18.2204L10.4143 17.4388Z" fill="#F6851B" stroke="#F6851B" stroke-linecap="round" stroke-linejoin="round"/>
<path id="Vector_23" d="M16.9774 24.6987L17.0056 23.823L16.7702 23.6158H13.2203L13.0038 23.823L13.0226 24.6987L10.0565 23.2957L11.0923 24.1431L13.1921 25.6026H16.7985L18.9077 24.1431L19.9435 23.2957L16.9774 24.6987Z" fill="#C0AD9E" stroke="#C0AD9E" stroke-linecap="round" stroke-linejoin="round"/>
<path id="Vector_24" d="M16.7514 21.742L16.2994 21.4313H13.6911L13.2392 21.742L13.0038 23.823L13.2203 23.6158H16.7702L17.0056 23.823L16.7514 21.742Z" fill="#161616" stroke="#161616" stroke-linecap="round" stroke-linejoin="round"/>
<g id="Group_5">
<path id="Vector_25" d="M26.2053 10.7533L27.0056 6.91151L25.8098 3.34277L16.7514 10.0659L20.2354 13.0132L25.1601 14.4539L26.2523 13.1827L25.7815 12.8437L26.5348 12.1563L25.951 11.7044L26.7043 11.13L26.2053 10.7533Z" fill="#763D16" stroke="#763D16" stroke-linecap="round" stroke-linejoin="round"/>
<path id="Vector_26" d="M2.99435 6.91151L3.79473 10.7533L3.28626 11.13L4.03955 11.7044L3.46516 12.1563L4.21846 12.8437L3.74765 13.1827L4.83051 14.4539L9.75519 13.0132L13.2392 10.0659L4.1808 3.34277L2.99435 6.91151Z" fill="#763D16" stroke="#763D16" stroke-linecap="round" stroke-linejoin="round"/>
</g>
<path id="Vector_27" d="M25.1601 14.4539L20.2354 13.0132L21.7326 15.2637L19.5009 19.5951L22.4388 19.5574H26.8173L25.1601 14.4539Z" fill="#F6851B" stroke="#F6851B" stroke-linecap="round" stroke-linejoin="round"/>
<path id="Vector_28" d="M9.75517 13.0132L4.8305 14.4539L3.19208 19.5574H7.56119L10.4896 19.5951L8.26741 15.2637L9.75517 13.0132Z" fill="#F6851B" stroke="#F6851B" stroke-linecap="round" stroke-linejoin="round"/>
<path id="Vector_29" d="M16.4407 15.499L16.7514 10.0659L18.1827 6.1958H11.8268L13.2392 10.0659L13.5687 15.499L13.6817 17.2127L13.6912 21.4312H16.2994L16.3183 17.2127L16.4407 15.499Z" fill="#F6851B" stroke="#F6851B" stroke-linecap="round" stroke-linejoin="round"/>
</g>
</svg>
